# xmcd CD database file
#
# Track frame offsets:
#	150
#	14374
#	50472
#	84033
#	114674
#	156408
#
# Disc length: 2394 seconds
#
# Revision: 1
# Processed by: cddbd v1.5.2PL0 Copyright (c) Steve Scherf et al.
# Submitted via: Feurio! 1.68 - http://www.feurio.com
#
DISCID=3f095806
DTITLE=Meck feat. Leo Sayer - Thunder in my heart again
DYEAR=1966
DGENRE=Pop
TTITLE0=Thunder in my heart again (Radio Edit)
TTITLE1=Thunder in my heart again (Miami Calling Mix)
TTITLE2=Thunder in my heart again (Hott 22 Mix)
TTITLE3=Thunder in my heart again (Starlet Dj´s Groove Deluxe Mix)
TTITLE4=Thunder in my heart again (Horny United Remix)
TTITLE5=Thunder in my heart again (Copy Protect)
EXTD=
EXTT0=
EXTT1=
EXTT2=
EXTT3=
EXTT4=
EXTT5=
PLAYORDER=
